<?xml version="1.0" encoding="utf-8"?>
<!-- Generator: Adobe Illustrator 27.8.1, SVG Export Plug-In . SVG Version: 6.00 Build 0)  -->
<svg version="1.1" id="Calque_1" xmlns="http://www.w3.org/2000/svg" xmlns:xlink="http://www.w3.org/1999/xlink" x="0px" y="0px"
	 viewBox="0 0 1776.8 194.63" style="enable-background:new 0 0 1776.8 194.63;" xml:space="preserve">
<style type="text/css">
	.st0{fill:#FFFFFF;}
</style>
<g>
	<path class="st0" d="M0,190.89V3.61h64.21c46.29,0,68.36,25.29,68.36,78.66v30.23c0,53.11-22.07,78.39-68.36,78.39H0z M48.56,152.5
		h12.98c14.85,0,21.94-8.02,21.94-25.01V67.02C83.48,50.03,76.39,42,61.54,42H48.56V152.5z"/>
	<path class="st0" d="M146.18,114.38V80.39c0-54.3,22.61-80.39,69.56-80.39c46.82,0,69.56,26.09,69.56,80.39v33.99
		c0,54.18-22.74,80.26-69.56,80.26C168.78,194.63,146.18,168.55,146.18,114.38z M236.2,126.41V70.09c0-21.4-6.68-31.7-20.47-31.7
		c-13.78,0-20.46,10.31-20.46,31.7v56.32c0,20.07,6.68,29.83,20.46,29.83C229.52,156.24,236.2,146.48,236.2,126.41z"/>
	<path class="st0" d="M301.32,140.06V3.61H350v133.65c0,13.11,6.3,20.07,17.93,20.07c11.38,0,17.79-6.96,17.79-20.07V3.61h48.56
		v136.45c0,35.45-23.54,54.44-66.35,54.44C324.86,194.5,301.32,175.51,301.32,140.06z"/>
	<path class="st0" d="M453.37,190.89V3.61h76.52c35.59,0,52.3,13.92,52.3,43.34v7.76c0,21.14-9.09,32.64-26.88,37.32v2.55
		c21.27,5.22,31.44,17.65,31.44,40.39v8.96c0,31.84-17.66,46.96-54.58,46.96H453.37z M501.93,78.65h17.66
		c10.04,0,14.72-4.14,14.72-13.37v-9.9c0-9.49-4.68-13.78-14.72-13.78h-17.66V78.65z M501.93,152.76h18.73
		c10.31,0,14.98-4.81,14.98-15.51v-11.77c0-10.17-4.67-14.85-14.98-14.85h-18.73V152.76z"/>
	<path class="st0" d="M600.35,190.89V3.61h48.56v147.56h53.38v39.73H600.35z"/>
	<path class="st0" d="M718.56,190.89V3.61h106.75v39.73h-58.19v35.18h53.37v34.38h-53.37v38.26h60.6v39.73H718.56z"/>
	<path class="st0" d="M881.79,190.89V3.61H946c46.29,0,68.35,25.29,68.35,78.66v30.23c0,53.11-22.06,78.39-68.35,78.39H881.79z
		 M930.35,152.5h12.97c14.85,0,21.94-8.02,21.94-25.01V67.02c0-16.99-7.09-25.01-21.94-25.01h-12.97V152.5z"/>
	<path class="st0" d="M1030.91,190.89V3.61h72.5c37.47,0,56.86,16.99,56.86,48.16v5.88c0,22.35-11.24,36.53-31.84,40v2.55
		c17.26,4.95,22.2,11.9,25.42,33.71l3.21,21.67c3.21,21.8,6.15,27.43,10.97,31.7l-0.54,3.61h-51.9c-3.49-6.02-4.96-14.85-6.83-32.91
		l-1.74-18.05c-1.87-18.06-5.22-23.41-16.98-23.41h-10.57v74.38H1030.91z M1079.47,80.13h19.4c9.1,0,13.38-4.42,13.38-14.31v-9.5
		c0-9.9-4.28-14.31-13.38-14.31h-19.4V80.13z"/>
	<path class="st0" d="M1174.41,190.89l43.07-187.29h63.41l44.01,187.29h-51.37l-3.74-22.47h-44.95l-3.75,22.47H1174.41z
		 M1232.06,133.77h30.64l-8.17-41.34c-2.4-16.32-4.55-30.1-5.89-45.21h-2.67c-1.07,15.12-3.08,28.9-5.49,45.08L1232.06,133.77z"/>
	<path class="st0" d="M1328.61,114.24V80.26c0-54.18,21.8-80.26,68.76-80.26c42.94,0,64.61,19.4,65.68,62.74l-46.16,6.42
		c-0.39-24.48-7.09-31.03-18.72-31.03c-13.78,0-20.46,10.57-20.46,32.64v50.56c0,22.61,6.42,33.58,19.79,33.58
		c11.65,0,18.73-7.49,20.87-35.85h-23.41V83.6h69.3v107.29h-40.94c-0.8-8.16,1.21-19.4,6.69-35.32l-3.08-1.07
		c-10.31,26.08-21.8,38.66-46.41,38.66C1345.86,193.16,1328.61,167.35,1328.61,114.24z"/>
	<path class="st0" d="M1478.93,114.38V80.39c0-54.3,22.6-80.39,69.56-80.39c46.82,0,69.56,26.09,69.56,80.39v33.99
		c0,54.18-22.74,80.26-69.56,80.26C1501.53,194.63,1478.93,168.55,1478.93,114.38z M1568.95,126.41V70.09
		c0-21.4-6.68-31.7-20.47-31.7c-13.78,0-20.46,10.31-20.46,31.7v56.32c0,20.07,6.68,29.83,20.46,29.83
		C1562.27,156.24,1568.95,146.48,1568.95,126.41z"/>
	<path class="st0" d="M1634.59,190.89V3.61h53.64l29.84,77.19c4.14,10.57,7.75,21.68,11.9,37.32l2.81-0.4
		c-1.87-20.59-3.08-37.85-3.08-52.97V3.61h47.09v187.29h-53.1l-29.16-72.91c-5.49-14.84-8.7-25.15-13.11-43.47l-2.81,0.53
		c1.74,18.87,3.08,41.21,3.08,59v56.85H1634.59z"/>
</g>
</svg>
