<?xml version="1.0" standalone="no"?>
<!DOCTYPE svg PUBLIC "-//W3C//DTD SVG 20010904//EN"
 "http://www.w3.org/TR/2001/REC-SVG-20010904/DTD/svg10.dtd">
<svg version="1.0" xmlns="http://www.w3.org/2000/svg"
 width="1000.000000pt" height="1000.000000pt" viewBox="0 0 1000.000000 1000.000000"
 preserveAspectRatio="xMidYMid meet">
<metadata>
Created by potrace 1.14, written by Peter Selinger 2001-2017
</metadata>
<g transform="translate(0.000000,1000.000000) scale(0.100000,-0.100000)"
fill="#000000" stroke="none">
<path d="M8100 8176 c0 -1 -11 -33 -24 -70 -13 -36 -22 -66 -20 -66 2 0 -1
-12 -6 -26 -14 -36 -25 -146 -23 -234 l1 -75 -40 45 c-61 67 -99 126 -134 208
-40 91 -46 80 -50 -84 -2 -107 3 -165 22 -225 4 -13 -9 -22 -58 -38 l-63 -21
-50 35 c-42 29 -119 100 -170 158 -36 41 -75 102 -120 192 l-36 70 5 -60 c7
-84 14 -117 42 -203 27 -81 79 -191 119 -249 13 -20 22 -40 20 -44 -3 -4 -22
-3 -42 1 -21 5 -49 11 -63 14 -95 18 -267 99 -368 174 -78 57 -79 51 -9 -43
67 -91 131 -158 212 -224 l74 -60 -32 -26 c-116 -96 -252 -246 -334 -370 -212
-318 -255 -600 -162 -1060 11 -55 25 -118 31 -140 5 -22 11 -47 13 -55 3 -15
28 -103 64 -223 11 -37 81 -249 155 -470 74 -221 142 -436 150 -477 8 -41 18
-88 21 -105 15 -71 14 -281 -1 -354 -44 -209 -166 -354 -393 -466 -291 -144
-578 -214 -736 -181 -42 9 -145 61 -177 90 -106 95 -179 263 -178 411 1 176
25 267 180 680 184 494 242 733 244 1010 1 182 -13 274 -70 440 -180 533 -692
978 -1359 1184 -162 50 -290 77 -485 105 -147 20 -361 26 -508 12 -737 -66
-1333 -566 -1546 -1296 -26 -91 -35 -133 -52 -255 -10 -75 -12 -270 -3 -355
13 -118 18 -163 24 -190 38 -190 51 -241 101 -390 79 -231 216 -521 404 -850
81 -143 149 -278 169 -337 33 -98 25 -208 -21 -275 -10 -14 -18 -29 -18 -33 0
-4 -20 -26 -45 -49 -158 -150 -424 -151 -720 -4 -78 39 -280 168 -320 205 -11
10 -45 39 -75 65 -348 295 -579 690 -669 1145 -34 170 -40 296 -27 548 11 210
15 244 37 319 103 357 311 695 615 1000 125 126 183 177 329 288 198 150 354
246 575 354 346 169 688 270 1060 313 75 9 438 7 515 -3 22 -3 65 -8 95 -11
30 -4 61 -8 70 -10 8 -1 37 -6 64 -9 27 -4 52 -9 56 -11 3 -2 25 -6 50 -10 25
-4 47 -8 50 -10 3 -2 21 -6 40 -9 69 -11 334 -88 458 -133 195 -70 311 -122
649 -288 399 -197 531 -246 633 -239 203 15 321 57 413 147 121 119 161 350
87 502 -106 218 -396 341 -625 265 -53 -18 -165 -82 -165 -95 0 -3 21 6 48 19
143 72 306 62 446 -28 154 -100 215 -230 176 -376 -39 -147 -140 -210 -328
-205 -76 2 -91 6 -170 46 -48 24 -194 112 -324 196 -131 84 -242 153 -248 153
-5 0 -10 4 -10 9 0 5 -8 12 -17 15 -10 3 -27 12 -38 19 -168 104 -477 257
-655 324 -196 74 -423 143 -570 172 -114 23 -192 37 -255 46 -23 3 -52 7 -65
10 -97 19 -493 26 -650 12 -646 -58 -1377 -347 -1925 -761 -158 -119 -235
-186 -380 -331 -100 -100 -132 -133 -217 -233 -81 -94 -219 -295 -307 -447
-28 -49 -70 -119 -93 -155 -139 -221 -260 -532 -316 -815 -39 -193 -46 -278
-47 -520 0 -283 19 -443 86 -710 26 -103 96 -319 120 -369 11 -22 19 -43 19
-47 0 -28 159 -369 247 -529 54 -99 195 -309 274 -407 316 -393 709 -653 1199
-792 99 -28 266 -63 356 -76 23 -3 59 -8 80 -11 112 -15 301 -27 424 -27 593
0 1062 239 1356 689 52 79 121 212 143 276 l12 33 28 -80 c113 -323 336 -588
606 -722 33 -16 85 -39 115 -51 50 -20 253 -74 325 -87 220 -39 232 -41 320
-50 33 -4 66 -8 74 -11 48 -16 492 -23 691 -11 117 7 137 9 270 28 551 78
1117 352 1364 662 137 171 252 434 290 662 3 17 7 44 10 61 17 98 28 212 31
333 2 96 4 105 27 125 14 11 47 40 73 64 95 85 253 158 386 179 64 10 313 11
384 1 78 -10 193 -36 280 -62 l80 -25 -30 25 c-89 74 -320 208 -425 247 -14 5
-32 13 -40 16 -8 4 -53 18 -100 31 -47 12 -91 24 -98 26 -7 2 17 27 55 55 159
121 238 152 390 153 108 0 228 -43 326 -118 l49 -37 -18 30 c-22 38 -108 128
-155 163 -69 51 -177 99 -259 114 -84 15 -234 10 -300 -11 -21 -7 -22 -5 -16
21 12 53 79 176 132 244 61 78 152 150 242 192 34 17 62 31 62 33 0 2 -12 2
-27 0 -16 -2 -46 -6 -68 -9 -75 -10 -110 -19 -186 -52 -162 -68 -261 -150
-398 -324 -81 -104 -110 -132 -158 -155 -64 -31 -159 -11 -239 50 -17 13 -43
27 -57 30 -36 9 -40 17 -72 130 -62 224 -153 451 -277 695 -40 80 -86 174
-102 210 -16 36 -37 83 -46 105 -51 115 -122 353 -138 464 -4 25 -7 105 -7
176 1 138 14 207 60 311 l24 55 33 -37 c112 -128 237 -202 553 -324 266 -104
396 -159 485 -207 90 -48 232 -145 290 -198 19 -18 60 -50 90 -70 80 -55 180
-155 243 -243 55 -76 137 -226 137 -249 0 -7 4 -13 9 -13 18 0 -10 198 -43
310 l-14 47 66 -23 c37 -12 95 -29 129 -37 l62 -14 24 26 c13 14 37 44 53 66
107 142 104 177 -33 363 -47 63 -218 267 -261 311 -50 51 -60 143 -24 224 l20
46 -50 88 c-161 281 -367 515 -583 665 -121 84 -166 123 -213 184 -61 80 -120
223 -136 332 -2 19 -6 36 -9 38 -3 4 -19 -49 -46 -161 -5 -16 -9 -66 -10 -110
-1 -44 -4 -81 -6 -83 -10 -10 -93 25 -152 64 -85 58 -165 151 -221 257 -39 74
-75 173 -75 205 0 6 -4 12 -9 12 -4 0 -8 -2 -8 -4z m-3760 -1987 c207 -49 347
-177 413 -377 15 -44 30 -104 34 -134 14 -112 6 -292 -18 -398 -6 -25 -13 -56
-15 -70 -3 -14 -9 -38 -14 -55 -36 -111 -66 -200 -115 -340 -31 -88 -76 -216
-100 -285 -24 -69 -67 -190 -95 -270 -29 -80 -58 -163 -65 -185 -23 -68 -85
-239 -89 -243 -2 -2 -10 8 -18 22 -7 14 -47 83 -89 153 -42 71 -88 148 -101
173 -14 25 -40 72 -58 105 -115 207 -281 564 -340 730 -12 33 -25 69 -30 80
-5 11 -17 47 -26 80 -10 33 -19 65 -21 70 -1 6 -12 50 -23 98 -79 354 -13 633
183 765 70 47 129 69 252 95 61 12 260 4 335 -14z"/>
</g>
</svg>
